<?xml version="1.0" encoding="UTF-8" standalone="no"?> <svg width="512" height="512" viewBox="0 0 512 512" fill="none" xmlns="http://www.w3.org/2000/svg">
<path d="M96 48C96.0049 43.758 97.6921 39.6912 100.692 36.6917C103.691 33.6921 107.758 32.0049 112 32H120C124.242 32.0049 128.309 33.6921 131.308 36.6917C134.308 39.6912 135.995 43.758 136 48C136.01 56.484 139.384 64.6177 145.383 70.6168C151.382 76.6159 159.516 79.9904 168 80H176C184.484 79.9904 192.618 76.6159 198.617 70.6168C204.616 64.6177 207.99 56.484 208 48C208.005 43.758 209.692 39.6912 212.692 36.6917C215.691 33.6921 219.758 32.0049 224 32H232C236.242 32.0049 240.309 33.6921 243.308 36.6917C246.308 39.6912 247.995 43.758 248 48C248.01 56.484 251.384 64.6177 257.383 70.6168C263.382 76.6159 271.516 79.9904 280 80H288C296.484 79.9904 304.618 76.6159 310.617 70.6168C316.616 64.6177 319.99 56.484 320 48C320.005 43.758 321.692 39.6912 324.692 36.6917C327.691 33.6921 331.758 32.0049 336 32H344C348.242 32.0049 352.309 33.6921 355.308 36.6917C358.308 39.6912 359.995 43.758 360 48C360.01 56.484 363.384 64.6177 369.383 70.6168C375.382 76.6159 383.516 79.9904 392 80H400C408.484 79.9904 416.618 76.6159 422.617 70.6168C428.616 64.6177 431.99 56.484 432 48C432.005 43.758 433.692 39.6912 436.692 36.6917C439.691 33.6921 443.758 32.0049 448 32H464V16H448C439.516 16.0096 431.382 19.3841 425.383 25.3832C419.384 31.3823 416.01 39.516 416 48C415.995 52.242 414.308 56.3088 411.308 59.3083C408.309 62.3079 404.242 63.9951 400 64H392C387.758 63.9951 383.691 62.3079 380.692 59.3083C377.692 56.3088 376.005 52.242 376 48C375.99 39.516 372.616 31.3823 366.617 25.3832C360.618 19.3841 352.484 16.0096 344 16H336C327.516 16.0096 319.382 19.3841 313.383 25.3832C307.384 31.3823 304.01 39.516 304 48C303.995 52.242 302.308 56.3088 299.308 59.3083C296.309 62.3079 292.242 63.9951 288 64H280C275.758 63.9951 271.691 62.3079 268.692 59.3083C265.692 56.3088 264.005 52.242 264 48C263.99 39.516 260.616 31.3823 254.617 25.3832C248.618 19.3841 240.484 16.0096 232 16H224C215.516 16.0096 207.382 19.3841 201.383 25.3832C195.384 31.3823 192.01 39.516 192 48C191.995 52.242 190.308 56.3088 187.308 59.3083C184.309 62.3079 180.242 63.9951 176 64H168C163.758 63.9951 159.691 62.3079 156.692 59.3083C153.692 56.3088 152.005 52.242 152 48C151.99 39.516 148.616 31.3823 142.617 25.3832C136.618 19.3841 128.484 16.0096 120 16H112C103.516 16.0096 95.3823 19.3841 89.3832 25.3832C83.3841 31.3823 80.0096 39.516 80 48V80H96V48Z" fill="black"/>
<path d="M280 152H224V224H280V152ZM264 208H240V168H264V208Z" fill="black"/>
<path d="M352 152H296V224H352V152ZM336 208H312V168H336V208Z" fill="black"/>
<path d="M352 240H296V312H352V240ZM336 296H312V256H336V296Z" fill="black"/>
<path d="M472 170.584L416 148.184V197.791L384 186.362V112H192V184H176C169.637 184.007 163.537 186.538 159.037 191.037C154.538 195.537 152.007 201.637 152 208V240H123.093L119.82 96H48.1797L40.1797 448H40C33.637 448.007 27.5367 450.538 23.0374 455.037C18.5381 459.537 16.0072 465.637 16 472V496H152V472C151.993 465.637 149.462 459.537 144.963 455.037C140.463 450.538 134.363 448.007 128 448H127.82L124.184 288H192V352H168V496H496V226.362L472 217.791V170.584ZM168 208C168.002 205.879 168.846 203.846 170.346 202.346C171.846 200.846 173.879 200.002 176 200H192V240H168V208ZM63.8203 112H104.18L105.271 160H62.7295L63.8203 112ZM62.3657 176H105.634L107.452 256H60.5476L62.3657 176ZM60.1841 272H107.816L109.634 352H58.3657L60.1841 272ZM58.0022 368H109.998L111.816 448H56.1841L58.0022 368ZM128 464C130.121 464.002 132.154 464.846 133.654 466.346C135.154 467.846 135.998 469.879 136 472V480H32V472C32.0024 469.879 32.8461 467.846 34.3458 466.346C35.8456 464.846 37.879 464.002 40 464H128ZM123.82 272L123.457 256H232C240.484 256.01 248.618 259.384 254.617 265.383C260.616 271.382 263.99 279.516 264 288V352H248V296C247.993 289.637 245.462 283.537 240.963 279.037C236.463 274.538 230.363 272.007 224 272H123.82ZM232 296V352H208V288H224C226.121 288.002 228.154 288.846 229.654 290.346C231.154 291.846 231.998 293.879 232 296V296ZM312 480H240V424H312V480ZM368 480H328V408H224V480H184V368H368V480ZM368 352H280V288C279.986 275.274 274.924 263.073 265.925 254.075C256.927 245.076 244.726 240.014 232 240H208V128H368V352ZM432 171.816L456 181.417V212.077L432 203.505V171.816ZM440 480H424V456H440V480ZM440 440H424V416H440V440ZM440 400H424V376H440V400ZM440 360H424V336H440V360ZM480 237.638V480H456V296H440V320H424V296H408V480H384V203.352L480 237.638Z" fill="black"/>
<path d="M496 16H480V32H496V16Z" fill="black"/>
</svg>
